# xmcd
# 
# Track frame offsets:
#     150
#     27547
#     50877
#     96712
#     129703
#     164746
#     194327
#     226251
# 
# Disc length: 3333
# 
# Revision: 2
# Processed by: cddbd v1.5.2PL0 Copyright (c) Steve Scherf et al.
# Submitted via: fre:ac v1.1rc1
# 
DISCID=7b0d0308
DTITLE=高田ひろ子Quartet - Elma
DYEAR=2003
DGENRE=J-Jazz
TTITLE0=Round and Round
TTITLE1=Elma
TTITLE2=Rhapsodie
TTITLE3=Waltz 2nd
TTITLE4=Walk Into Schwalzwald (黒い森)
TTITLE5=Pico-Moko
TTITLE6=The Wind From The West (西から来た風)
TTITLE7=We Are Nearly At The Sea (もうすぐ海)
EXTD=YEAR: 2003
EXTT0=
EXTT1=
EXTT2=
EXTT3=
EXTT4=
EXTT5=
EXTT6=
EXTT7=
PLAYORDER=
